<?xml version="1.0" encoding="utf-8"?>
<!-- Generator: Adobe Illustrator 25.2.1, SVG Export Plug-In . SVG Version: 6.00 Build 0)  -->
<svg version="1.1" id="Layer_1" xmlns="http://www.w3.org/2000/svg" xmlns:xlink="http://www.w3.org/1999/xlink" x="0px" y="0px"
	 viewBox="0 0 512 551" style="enable-background:new 0 0 512 551;" xml:space="preserve">
<style type="text/css">
	.st0{opacity:0.5;fill:#FFFFFF;}
	.st1{fill:#FFFFFF;}
</style>
<g>
	<g>
		<path class="st0" d="M256,249.9c-6.8,0-13.5-0.1-20.2-0.2l0,25.8c0,11.2,9,20.2,20.2,20.2c11.2,0,20.2-9,20.2-20.2l0-25.8
			C269.5,249.8,262.8,249.9,256,249.9z"/>
	</g>
</g>
<g>
	<g>
		<path class="st0" d="M122.8,239.2l-12.4,22.9c-3.7,10.5,1.9,22.1,12.4,25.8c2.2,0.8,4.5,1.1,6.7,1.1c8.4,0,16.2-5.2,19.1-13.5
			l15-30.5C149.5,243.4,135.9,241.4,122.8,239.2z"/>
	</g>
</g>
<g>
	<g>
		<path class="st0" d="M396.4,262.6l-7.2-23.4c-13.1,2.3-26.7,4.2-40.8,5.8l9.9,31c2.9,8.3,10.7,13.5,19.1,13.5
			c2.2,0,4.5-0.4,6.7-1.1C394.6,284.6,400.1,273.1,396.4,262.6z"/>
	</g>
</g>
<g>
	<g>
		<path class="st1" d="M398.1,67.5c3.7,12.9,5.6,26.4,5.6,40.2c0,16-9.4,30.4-24,36.9c-2.3,1-56.1,24.6-122.4,24.6
			c-66.4,0-120.2-23.6-122.4-24.6c-14.6-6.5-24-21-24-36.9c0-14,2-27.7,5.7-40.7C62.6,77.8,0,99.5,0,142c0,28.7,28.2,51.2,83.7,67.1
			c15.9,4.6,33.6,8.4,52.6,11.5c13.1,2.1,26.8,3.9,41,5.3c18.8,1.8,38.4,3,58.5,3.5c6.7,0.2,13.4,0.2,20.2,0.2
			c6.8,0,13.5-0.1,20.2-0.2c20.1-0.5,39.7-1.7,58.5-3.5c14.2-1.4,27.9-3.2,41-5.3c19-3.1,36.7-7,52.6-11.5
			c55.5-15.9,83.7-38.5,83.7-67.1C512,100.1,450.9,78.4,398.1,67.5z"/>
	</g>
</g>
<g>
	<g>
		<path class="st1" d="M353.1,62.4c-2.9-6.2-6.4-12-10.4-17.5c-4.1-5.6-8.8-10.8-13.9-15.5c-18.9-17.2-43.9-27.8-71.5-27.8
			c-27.4,0-52.5,10.4-71.3,27.6c-5.1,4.7-9.8,9.8-13.9,15.4c-4,5.4-7.6,11.3-10.5,17.4c-6.6,13.8-10.3,29.3-10.3,45.6
			c0,0,47.5,21.1,106,21.1c58.5,0,106-21.1,106-21.1C363.2,91.5,359.6,76.2,353.1,62.4z"/>
	</g>
</g>
<path class="st1" d="M356,416.3l-0.1-0.2c-0.1-0.2-0.2-0.4-0.4-0.6c-0.1-0.2-0.3-0.4-0.5-0.6c-0.6-0.6-1.3-1.1-2.1-1.6
	c-1.3-1-2.9-2.1-4.3-3.9c-1.5-1.8-2.6-4-3.5-6.7c-3.8-11.2-4-18.1-3.2-25c0.1-0.7,0.2-1.4,0.3-2.2l0-0.1c0.2-1.4,0.3-2.8,0.4-4.1
	l0-0.3c0-0.5,0.1-1.1,0.1-1.6l0-0.4c0-0.6,0.1-1.1,0.1-1.7c0-0.5,0-1,0-1.5l0-0.4c0-0.4,0-0.7-0.1-1.1l0-0.3c0-0.4-0.1-0.8-0.2-1.2
	c-0.1-0.6-0.3-1.2-0.4-1.9c-1.2-6-3.1-15.1-9.4-19.2c-3.9-2.5-9-2.8-15.1-0.8c-6.8,2.2-13.9,4.8-21.4,7.6
	c-14.2,5.3-29,10.8-43.2,13.8c-12.1,2.6-19.4,2.5-25.9,2.4c-5.2-0.1-9.6-0.2-15.5,1.1c-3.7,0.8-7.1,1.8-10.4,2.7
	c-2.9,0.8-5.6,1.6-8.2,2.1c-5.8,1.3-10,1.3-14,0.3c-0.6-0.2-1.3-0.4-2.1-0.7c-0.7-0.2-1.3-0.5-2-0.8c-1.8-0.8-3.6-1.7-5.2-2.6
	c0.4-2.7,0-5.9,0-6l-0.1-1.1l-5.9,3.9c-3.1-1.5-5.2-2-6.9-1.6c-1.2,0.3-2.1,0.9-2.8,2c-3.7,5.8-5.7,7.6-5.7,7.6l-0.1,0.2
	c-0.6,1-5.5,10.3-4.7,14c0.5,2.4-4.5,10.6-7.8,15.4c-0.8,0.4-3.5,1.8-4.2,4.2c-0.4,1.3-0.1,2.7,0.8,4c3.5,5.2,7.1,5.6,9.4,5.1
	c2.1-0.5,3.6-1.7,4.1-2.3c2.1-0.1,15.1-0.7,17.9-1.3c2.4-0.5,4.7-2.2,5.5-2.9c1.6,0.7,8.3,4.1,14.2,13.1c0.6,0.9,1.2,1.8,1.8,2.7
	c1.4,2.2,3.1,4.8,4.8,7.3c0.3,0.4,0.6,0.8,0.9,1.2l3.6,4.7l3.4,3.7c0.2,0.2,0.4,0.4,0.6,0.5l0.5,0.4c0.2,0.2,0.4,0.4,0.6,0.5
	l0.5,0.4c0.2,0.2,0.4,0.3,0.6,0.5l0.5,0.4c0.2,0.2,0.4,0.3,0.7,0.5l0.4,0.3c0.2,0.2,0.5,0.3,0.7,0.4l0.4,0.3
	c0.3,0.1,0.5,0.3,0.9,0.5l0.2,0.1c0.3,0.2,0.6,0.3,1,0.5l0.2,0.1c0.4,0.2,0.8,0.3,1.2,0.5c2.1,0.7,4.2,0.9,6.4,0.6
	c0.2,1,0.3,2.1,0.5,3.3l0.4,2.6l1.1,6.4c0.1,0.3,0.1,0.6,0.2,0.9c0.8,3.6,2.8,4.9,3.6,5.3c0.4,1.2,2.1,6.1,1.2,11.1
	c-0.1,0.3-0.1,0.7-0.2,1c0,0.2-0.1,0.3-0.2,0.6l-0.2,0.5c-0.1,0.3-0.2,0.6-0.4,1l-0.1,0.2c-0.1,0.4-0.3,0.8-0.5,1.1
	c-2.6,6.1-7.6,13.8-7.7,13.9l-0.9,1.4l19.2-4.2l-0.3-0.8c-0.6-1.5-1.4-4.2-0.7-5.3c1.1-1.7,2.4-2.9,2.4-2.9l0.3-0.3l-4-21.5l0.2-0.4
	c0.1-0.1,0.1-0.3,0.2-0.5l0.2-0.5c0.7-1.9,1.4-4.6,0.8-7.2c-0.2-0.7-0.4-1.9-0.6-3.4c0.7,1.5,1.2,2.6,1.6,3.4c1.9,3.9,4.9,6,5.8,6.6
	l2.8,12.9c0.8,3.5-3.6,14.1-5.3,17.9l-0.6,1.3l21.1-4.6l-0.5-0.8c-3.5-6-2.8-8.3-2.2-8.6l0.7-0.3l-0.4-0.7c0-0.1-3.1-5.2-5.2-11
	l-0.4-1.3c-1.3-3.7-1.8-5.6-2-6.3c0.5-0.6,1.2-2.2,0.5-5.3c-0.4-1.7-1.2-3.9-2.2-6.4c-1.3-3.3-2.8-7-3.7-10.9c8.4-3,17.9-5,28-5.9
	c5.4-0.4,10.4-1.2,14.9-2.1c13.7-3,19.5-7.5,21.3-9.3c1,1.3,3.4,3.7,7.9,5.2c-1,3-1.3,5-0.8,6c0.2,0.4,0.5,0.6,0.8,0.8
	c0.2,0.1,0.4,0.1,0.7,0c1.6-0.3,4-3.9,5.1-5.8c0.3,0,0.7,0,1,0c-0.2,1.4-0.3,2.6-0.3,3.6c-0.1,1.4,0.3,2.4,0.9,2.9
	c0.4,0.3,0.8,0.4,1.2,0.3c0.8-0.2,1.5-1.1,2-2.5c0.3-1.1,0.7-2.7,1-4.6c0.7-0.1,1.4-0.3,2-0.4c1.3,7.1,3.1,19.2,1.5,25.7
	c-2.6,10.3-9.1,22.7-9.2,22.8l-0.7,1.3l18.3-4l-0.4-0.8c-1.2-2.5-2.6-6.6-1.9-7.7c1.1-1.7,3.8-2.3,3.8-2.3l0.5-0.1l0-0.5
	c0-0.2,0.8-16.6,1.9-23c0.4-2.4,1.3-6.4,2.7-11.6c1.1,1.3,2.2,2.6,3,4c0.1,0.2,0.2,0.3,0.3,0.5l0.2,0.4c0.1,0.2,0.2,0.3,0.3,0.6
	l0.2,0.3c0.1,0.2,0.2,0.4,0.3,0.5l0.2,0.5c0.1,0.2,0.1,0.3,0.2,0.5l0.6,1.7l0.7-0.2l0,0l-0.6,0.3l0.1,0.4c0.1,0.3,0.1,0.5,0.2,0.8
	l0.1,0.4c0.1,0.4,0.2,0.9,0.3,1.3c0.1,0.4,0.1,0.8,0.2,1.3l0,0.2c0.1,0.4,0.1,0.9,0.2,1.4l0,0.3c0,0.5,0.1,1,0.1,1.6
	c0,0.6,0.1,1.1,0.1,1.7l0.7,0l-0.7,0.2c0,0.6,0,1.2,0,1.9l0.7,0l-0.7,0.2c0,1.9,0,4-0.1,6.3c-0.2,7.8-0.9,15.4-0.9,15.5l-0.1,1
	l15.3-3.6l-0.4-0.8c-1.3-2.9-2.4-6.5-1.8-7.4c1.1-1.7,2.6-3,2.6-3.1l0.3-0.3l-5.3-24.5c-0.5-2.5-0.4-4.3-0.3-5.9
	c0.1-1.5,0.2-3-0.2-4.8C356.2,416.7,356.1,416.5,356,416.3z"/>
</svg>
